<svg width="35" height="35" viewBox="0 0 35 35" fill="none" xmlns="http://www.w3.org/2000/svg">
<path fill-rule="evenodd" clip-rule="evenodd" d="M24.3036 2.93175C26.4014 2.80064 28.4701 3.52905 30.0289 4.95674C31.4566 6.51554 32.1851 8.58424 32.0685 10.6966V24.3034C32.1996 26.4158 31.4566 28.4845 30.0435 30.0433C28.4847 31.471 26.4014 32.1994 24.3036 32.0683H10.6967C8.58429 32.1994 6.51558 31.471 4.95676 30.0433C3.52906 28.4845 2.80064 26.4158 2.93176 24.3034V10.6966C2.80064 8.58424 3.52906 6.51554 4.95676 4.95674C6.51558 3.52905 8.58429 2.80064 10.6967 2.93175H24.3036ZM16.0142 24.5656L25.8187 14.732C26.7074 13.8288 26.7074 12.372 25.8187 11.4833L23.9248 9.58945C23.0216 8.68621 21.5647 8.68621 20.6615 9.58945L19.6854 10.5801C19.5397 10.7258 19.5397 10.9734 19.6854 11.1191C19.6854 11.1191 22.0018 13.4209 22.0455 13.4792C22.2058 13.654 22.3077 13.8871 22.3077 14.1493C22.3077 14.6738 21.8852 15.1108 21.3462 15.1108C21.0986 15.1108 20.8655 15.0088 20.7052 14.8486L18.2723 12.4303C18.1557 12.3137 17.9518 12.3137 17.8352 12.4303L10.8861 19.3793C10.4054 19.8601 10.1286 20.5011 10.114 21.1858L10.0266 24.6385C10.0266 24.8278 10.0849 25.0027 10.216 25.1338C10.3471 25.2649 10.5219 25.3377 10.7113 25.3377H14.1349C14.8342 25.3377 15.5043 25.0609 16.0142 24.5656Z" fill="#4B4B4B"/>
</svg>
